<svg width="24" height="25" viewBox="0 0 24 25" fill="none" xmlns="http://www.w3.org/2000/svg">
<g id="dashicons:email">
<path id="Vector" d="M4.64394 5.47119H20.5439C22.0439 5.47119 22.7999 6.17919 22.7999 7.61919V17.7232C22.7999 19.1512 22.0439 19.8712 20.5439 19.8712H4.64394C3.14394 19.8712 2.38794 19.1512 2.38794 17.7232V7.61919C2.38794 6.17919 3.14394 5.47119 4.64394 5.47119ZM12.5879 15.7912L20.6759 9.15519C20.9639 8.91519 21.1919 8.36319 20.8319 7.87119C20.4839 7.37919 19.8479 7.36719 19.4279 7.66719L12.5879 12.2992L5.75994 7.66719C5.33994 7.36719 4.70394 7.37919 4.35594 7.87119C3.99594 8.36319 4.22394 8.91519 4.51194 9.15519L12.5879 15.7912Z" fill="#0E0F1D"/>
</g>
</svg>
