<svg width="16" height="19" viewBox="0 0 16 19" fill="none" xmlns="http://www.w3.org/2000/svg">
<g id="instagram logo" clip-path="url(#clip0_2_30882)">
<path id="Vector" d="M8.00356 5.62822C5.73213 5.62822 3.89999 7.43174 3.89999 9.66767C3.89999 11.9036 5.73213 13.7071 8.00356 13.7071C10.275 13.7071 12.1071 11.9036 12.1071 9.66767C12.1071 7.43174 10.275 5.62822 8.00356 5.62822ZM8.00356 12.2938C6.5357 12.2938 5.3357 11.1161 5.3357 9.66767C5.3357 8.21923 6.53213 7.0415 8.00356 7.0415C9.47499 7.0415 10.6714 8.21923 10.6714 9.66767C10.6714 11.1161 9.47142 12.2938 8.00356 12.2938ZM13.2321 5.46299C13.2321 5.98681 12.8036 6.40517 12.275 6.40517C11.7428 6.40517 11.3178 5.9833 11.3178 5.46299C11.3178 4.94267 11.7464 4.5208 12.275 4.5208C12.8036 4.5208 13.2321 4.94267 13.2321 5.46299ZM15.95 6.41924C15.8893 5.15713 15.5964 4.03916 14.6571 3.11807C13.7214 2.19697 12.5857 1.90869 11.3036 1.84541C9.98213 1.77158 6.02142 1.77158 4.69999 1.84541C3.42142 1.90518 2.28571 2.19346 1.34642 3.11455C0.407136 4.03564 0.11785 5.15361 0.0535644 6.41572C-0.0214355 7.7165 -0.0214355 11.6153 0.0535644 12.9161C0.114279 14.1782 0.407136 15.2962 1.34642 16.2173C2.28571 17.1384 3.41785 17.4267 4.69999 17.4899C6.02142 17.5638 9.98213 17.5638 11.3036 17.4899C12.5857 17.4302 13.7214 17.1419 14.6571 16.2173C15.5928 15.2962 15.8857 14.1782 15.95 12.9161C16.025 11.6153 16.025 7.72002 15.95 6.41924ZM14.2428 14.3118C13.9643 15.0009 13.425 15.5317 12.7214 15.8095C11.6678 16.2208 9.16784 16.1259 8.00356 16.1259C6.83927 16.1259 4.3357 16.2173 3.2857 15.8095C2.58571 15.5352 2.04642 15.0044 1.76428 14.3118C1.34642 13.2747 1.44285 10.8138 1.44285 9.66767C1.44285 8.52158 1.34999 6.05713 1.76428 5.02353C2.04285 4.33447 2.58213 3.80361 3.2857 3.52588C4.33928 3.11455 6.83927 3.20947 8.00356 3.20947C9.16784 3.20947 11.6714 3.11807 12.7214 3.52588C13.4214 3.8001 13.9607 4.33096 14.2428 5.02353C14.6607 6.06064 14.5643 8.52158 14.5643 9.66767C14.5643 10.8138 14.6607 13.2782 14.2428 14.3118Z" fill="white"/>
</g>
<defs>
<clipPath id="clip0_2_30882">
<rect width="16" height="18" fill="white" transform="translate(0 0.671387)"/>
</clipPath>
</defs>
</svg>
