<svg width="16" height="19" viewBox="0 0 16 19" fill="none" xmlns="http://www.w3.org/2000/svg">
<g id="instagram logo" clip-path="url(#clip0_2_30849)">
<path id="Vector" d="M8.00368 5.20537C5.73225 5.20537 3.90011 7.00888 3.90011 9.24482C3.90011 11.4808 5.73225 13.2843 8.00368 13.2843C10.2751 13.2843 12.1073 11.4808 12.1073 9.24482C12.1073 7.00888 10.2751 5.20537 8.00368 5.20537ZM8.00368 11.871C6.53583 11.871 5.33583 10.6933 5.33583 9.24482C5.33583 7.79638 6.53225 6.61865 8.00368 6.61865C9.47511 6.61865 10.6715 7.79638 10.6715 9.24482C10.6715 10.6933 9.47154 11.871 8.00368 11.871ZM13.2322 5.04013C13.2322 5.56396 12.8037 5.98232 12.2751 5.98232C11.743 5.98232 11.318 5.56045 11.318 5.04013C11.318 4.51982 11.7465 4.09795 12.2751 4.09795C12.8037 4.09795 13.2322 4.51982 13.2322 5.04013ZM15.9501 5.99638C15.8894 4.73428 15.5965 3.61631 14.6572 2.69521C13.7215 1.77412 12.5858 1.48584 11.3037 1.42256C9.98225 1.34873 6.02154 1.34873 4.70011 1.42256C3.42154 1.48232 2.28583 1.77061 1.34654 2.6917C0.407258 3.61279 0.117972 4.73076 0.0536865 5.99287C-0.0213135 7.29365 -0.0213135 11.1925 0.0536865 12.4933C0.114401 13.7554 0.407258 14.8733 1.34654 15.7944C2.28583 16.7155 3.41797 17.0038 4.70011 17.0671C6.02154 17.1409 9.98225 17.1409 11.3037 17.0671C12.5858 17.0073 13.7215 16.719 14.6572 15.7944C15.593 14.8733 15.8858 13.7554 15.9501 12.4933C16.0251 11.1925 16.0251 7.29716 15.9501 5.99638ZM14.243 13.889C13.9644 14.578 13.4251 15.1089 12.7215 15.3866C11.668 15.7979 9.16797 15.703 8.00368 15.703C6.8394 15.703 4.33583 15.7944 3.28583 15.3866C2.58583 15.1124 2.04654 14.5815 1.7644 13.889C1.34654 12.8518 1.44297 10.3909 1.44297 9.24482C1.44297 8.09873 1.35011 5.63427 1.7644 4.60068C2.04297 3.91162 2.58226 3.38076 3.28583 3.10303C4.3394 2.6917 6.8394 2.78662 8.00368 2.78662C9.16797 2.78662 11.6715 2.69521 12.7215 3.10303C13.4215 3.37724 13.9608 3.9081 14.243 4.60068C14.6608 5.63779 14.5644 8.09873 14.5644 9.24482C14.5644 10.3909 14.6608 12.8554 14.243 13.889Z" fill="#383838"/>
</g>
<defs>
<clipPath id="clip0_2_30849">
<rect width="16" height="18" fill="white" transform="translate(0.00012207 0.248535)"/>
</clipPath>
</defs>
</svg>
