<svg width="16" height="16" viewBox="0 0 16 16" fill="none" xmlns="http://www.w3.org/2000/svg">
<g id="linkedin logo" clip-path="url(#clip0_2_30886)">
<path id="Vector" d="M3.63269 15.6714V5.55092H0.202386V15.6714H3.63269ZM1.91798 4.16831C3.11419 4.16831 3.85877 3.39117 3.85877 2.42001C3.83648 1.42695 3.11423 0.671387 1.94068 0.671387C0.767312 0.671387 0 1.42697 0 2.42001C0 3.39122 0.744398 4.16831 1.89559 4.16831H1.91787H1.91798ZM5.53135 15.6714H8.96165V10.0196C8.96165 9.71715 8.98394 9.41499 9.07452 9.19877C9.32251 8.59443 9.88693 7.96851 10.8345 7.96851C12.0758 7.96851 12.5724 8.89659 12.5724 10.2571V15.6713H16.0025V9.86834C16.0025 6.75972 14.3101 5.31332 12.0532 5.31332C10.2027 5.31332 9.39021 6.32765 8.93883 7.0185H8.96173V5.55071H5.53143C5.57644 6.50036 5.53143 15.6712 5.53143 15.6712L5.53135 15.6714Z" fill="white"/>
</g>
<defs>
<clipPath id="clip0_2_30886">
<rect width="16" height="15" fill="white" transform="translate(0 0.671387)"/>
</clipPath>
</defs>
</svg>
