<svg width="142" height="29" viewBox="0 0 142 29" fill="none" xmlns="http://www.w3.org/2000/svg">
<path d="M13.7223 0.468506L16.7532 10.1423H26.5616L18.6265 16.121L21.6574 25.7947L13.7223 19.816L5.78719 25.7947L8.81813 16.121L0.883027 10.1423H10.6914L13.7223 0.468506Z" fill="#FF5C00"/>
<path d="M53.7222 0.468506L56.7531 10.1423H66.5614L58.6263 16.121L61.6573 25.7947L53.7222 19.816L45.7871 25.7947L48.818 16.121L40.8829 10.1423H50.6912L53.7222 0.468506Z" fill="#FF5C00"/>
<path d="M92.7222 0.468506L95.7531 10.1423H105.561L97.6263 16.121L100.657 25.7947L92.7222 19.816L84.7871 25.7947L87.818 16.121L79.8829 10.1423H89.6912L92.7222 0.468506Z" fill="#FF5C00"/>
<path d="M127.722 0.468506L130.753 10.1423H140.561L132.626 16.121L135.657 25.7947L127.722 19.816L119.787 25.7947L122.818 16.121L114.883 10.1423H124.691L127.722 0.468506Z" fill="#FF5C00"/>
</svg>
