<svg width="18" height="15" viewBox="0 0 18 15" fill="none" xmlns="http://www.w3.org/2000/svg">
<g id="Twitter logo" clip-path="url(#clip0_2_30841)">
<path id="Vector" d="M17.9999 1.95343C17.3258 2.2379 16.6109 2.42463 15.8788 2.5074C16.6414 2.072 17.2269 1.38251 17.5026 0.561003C16.7777 0.970811 15.9846 1.25955 15.1576 1.41473C14.4839 0.731012 13.5242 0.303711 12.462 0.303711C10.4225 0.303711 8.76897 1.87894 8.76897 3.8218C8.76897 4.09758 8.80167 4.36605 8.8646 4.62361C5.79546 4.47685 3.07436 3.07625 1.25292 0.947711C0.935104 1.46732 0.752995 2.07173 0.752995 2.7164C0.752995 3.93701 1.405 5.0138 2.39585 5.64474C1.8094 5.62724 1.23587 5.47635 0.723112 5.20465C0.722901 5.21938 0.722901 5.23412 0.722901 5.24892C0.722901 6.95351 1.99584 8.37548 3.68517 8.69868C3.14136 8.83958 2.57095 8.8602 2.0175 8.75897C2.48739 10.1567 3.85125 11.1738 5.46717 11.2023C4.2033 12.1458 2.61093 12.7083 0.880823 12.7083C0.582698 12.7083 0.288792 12.6916 -0.00012207 12.6591C1.63415 13.6574 3.57527 14.2398 5.66074 14.2398C12.4534 14.2398 16.1678 8.87887 16.1678 4.2298C16.1678 4.07721 16.1643 3.92549 16.1571 3.77464C16.8801 3.27672 17.5041 2.66001 17.9999 1.95343Z" fill="#383838"/>
</g>
<defs>
<clipPath id="clip0_2_30841">
<rect width="18" height="14" fill="white" transform="translate(-0.00012207 0.248535)"/>
</clipPath>
</defs>
</svg>
