<svg width="18" height="15" viewBox="0 0 18 15" fill="none" xmlns="http://www.w3.org/2000/svg">
<g id="Twitter logo" clip-path="url(#clip0_2_30890)">
<path id="Vector" d="M17.9998 2.37628C17.3257 2.66076 16.6108 2.84748 15.8787 2.93026C16.6412 2.49485 17.2267 1.80537 17.5024 0.983854C16.7776 1.39366 15.9845 1.6824 15.1574 1.83759C14.4838 1.15386 13.5241 0.726562 12.4619 0.726562C10.4224 0.726562 8.76885 2.3018 8.76885 4.24465C8.76885 4.52043 8.80155 4.78891 8.86447 5.04646C5.79533 4.8997 3.07424 3.4991 1.25279 1.37056C0.934982 1.89017 0.752873 2.49458 0.752873 3.13925C0.752873 4.35986 1.40488 5.43666 2.39572 6.06759C1.80928 6.0501 1.23574 5.8992 0.72299 5.6275C0.722779 5.64223 0.722779 5.65697 0.722779 5.67178C0.722779 7.37636 1.99572 8.79833 3.68504 9.12154C3.14124 9.26243 2.57082 9.28305 2.01737 9.18182C2.48727 10.5795 3.85112 11.5967 5.46705 11.6251C4.20318 12.5687 2.61081 13.1312 0.880701 13.1312C0.582576 13.1312 0.28867 13.1145 -0.000244141 13.082C1.63403 14.0802 3.57515 14.6627 5.66062 14.6627C12.4533 14.6627 16.1677 9.30173 16.1677 4.65266C16.1677 4.50006 16.1642 4.34834 16.157 4.19749C16.88 3.69957 17.504 3.08286 17.9998 2.37628Z" fill="white"/>
</g>
<defs>
<clipPath id="clip0_2_30890">
<rect width="18" height="14" fill="white" transform="translate(-0.000244141 0.671387)"/>
</clipPath>
</defs>
</svg>
